<svg stroke-miterlimit="10" style="fill-rule:nonzero;clip-rule:evenodd;stroke-linecap:round;stroke-linejoin:round" viewBox="0 0 1024 1024" xml:space="preserve" xmlns="http://www.w3.org/2000/svg">
	<title>Hearth Logo</title>
	<desc>
		Created by Sasha Koshka (pseudonymous)
		https://holanet.xyz
		Licensed under Attribution-ShareAlike 4.0 International (CC BY-SA 4.0)
		https://creativecommons.org/licenses/by-sa/4.0/legalcode
	</desc>
	<defs>
		<linearGradient gradientTransform="matrix(1.32344 0 0 1.07196 -143.253 -21.018)" gradientUnits="userSpaceOnUse" id="a" x1="489.841" x2="496.343" y1="231.862" y2="838.454">
			<stop offset="0" stop-color="#fa3e43"/>
			<stop offset="1" stop-color="#ff8d00"/>
		</linearGradient>
		<linearGradient gradientTransform="matrix(1.20028 .05456 -.05622 1.23683 -70.603 -196.452)" gradientUnits="userSpaceOnUse" id="b" x1="480.305" x2="483.318" y1="373.147" y2="345.276">
			<stop offset="0" stop-color="#ff7f0b"/>
			<stop offset="1" stop-color="#ff4222"/>
		</linearGradient>
		<linearGradient gradientTransform="matrix(1.20152 0 0 1.2381 -78.904 -163.795)" gradientUnits="userSpaceOnUse" id="c" x1="549.102" x2="626.232" y1="722.755" y2="404.789">
			<stop offset="0" stop-color="#ff5639"/>
			<stop offset=".042" stop-color="#ff4a37"/>
			<stop offset="1" stop-color="#ffca0b"/>
		</linearGradient>
		<linearGradient gradientTransform="matrix(1.20152 0 0 1.2381 -78.904 -163.795)" gradientUnits="userSpaceOnUse" id="d" x1="344.641" x2="586.651" y1="509.999" y2="808.196">
			<stop offset="0" stop-color="#fae73e" stop-opacity=".859"/>
			<stop offset=".637" stop-color="#ff7000"/>
			<stop offset=".86" stop-color="#ff3400"/>
			<stop offset="1" stop-color="#ff3400"/>
		</linearGradient>
	</defs>
	<path d="M559.039 27.269c-283.963 1.463-425.046 281.625-422.467 565.014a837.707 837.707 0 0 0 1.034 34.427l.083 1.588c.556 10.642 1.352 21.262 2.316 31.864.14 1.552.264 3.105.413 4.656a822.093 822.093 0 0 0 3.681 31.612c.152 1.118.299 2.239.455 3.356a803.68 803.68 0 0 0 5.335 33.019c.097.53.192 1.059.29 1.588 2 10.819 4.217 21.555 6.658 32.226.223.974.436 1.95.662 2.923a756.027 756.027 0 0 0 7.982 31.251c.254.916.528 1.829.786 2.743a724.62 724.62 0 0 0 9.76 31.793c.065.194.142.383.207.577 3.585 10.743 7.385 21.364 11.456 31.829.046.118 19.798 30.267 19.844 30.385 88.344 29.643 180.779 37.685 306.757 37.686 127.751 0 209.685-7.491 298.504-37.883 31.14-81.35 57.897-210.785 67.837-307.75C909.577 307.816 782.28 26.118 559.039 27.269Z" fill="#c9bbb4"/>
	<path d="M534.349 160.271c266.37-6.19 314.142 513.713 199.114 670.752 0 0-69.817 35.773-230.82 35.773-164.08 0-226.122-35.665-226.122-35.665-88.707-130.064-60.933-663.452 257.828-670.86Z" fill="url(#a)"/>
	<path d="M849.907 856.718c-88.819 34.83-205.136 56.163-332.887 56.163-125.978-.001-240.862-20.703-329.206-54.675 6.734 19.808 13.939 39.258 22.002 58.025 0 0 38.456 73.819 274.242 80.068 254.659 6.751 336.94-67.164 336.94-67.164 10.816-22.658 20.41-46.972 28.909-72.417Z" fill="#675169"/>
	<path d="M374.906 865.438c-2.428.065-4.86 1.132-7.062 2.031-2.924 1.193-5.759 2.485-8.75 3.5-6.816 2.312-13.609 4.687-20.25 7.469-5.399 2.261-10.77 4.783-15.75 7.874-1.637 1.017-3.176 2.163-4.719 3.313-.03.02 1.555 2.439 3.563 5.406 2.007 2.967 3.657 5.364 3.687 5.344 5.08-2.881 10.255-5.654 15.563-8.094 8.299-3.815 16.847-7.022 25.374-10.281 2.508-.958 4.867-2.078 7.282-3.25 2.279-1.106 4.656-2.24 7.187-2.625 2.28-.347 4.705.092 6.938.531 3.125.615 6.191 1.526 9.312 2.156 3.538.715 7.173 1.043 10.75 1.5 5.739.734 11.472 1.488 17.219 2.157 9.708 1.129 19.437 2.07 29.188 2.75 12.209.851 24.422 1.453 36.593 2.781 8.876.968 17.691 2.371 26.407 4.312.029-.019-1.556-2.392-3.532-5.312-1.975-2.92-3.596-5.27-3.625-5.25-8.715-1.942-17.499-3.344-26.375-4.312-16.6-1.811-33.315-2.297-49.937-3.844-8.438-.786-16.872-1.842-25.281-2.875-5.215-.641-10.46-1.196-15.657-1.969-3.61-.537-7.1-1.549-10.656-2.344-2.445-.546-4.95-1.036-7.469-.968Z" fill="#ffe6c5"/>
	<path d="M680.938 853.375c-1.29.109-2.588.337-3.844.531-2.194.34-4.379.589-6.563 1-10.785 2.032-21.04 6.061-31.656 8.75-1.621.411-3.311.803-4.969 1.032-4.436.612-8.944.351-13.406.468-3.546.093-7.108.484-10.625.938-7.259.937-14.44 2.387-21.656 3.594-4.817.805-9.64 1.457-14.5 1.937-7.483.739-14.938 1.705-22.375 2.813-6.193.922-12.361 1.978-18.563 2.843-1.649.23-3.314.471-4.969.657-4.253.476-10.035.76-12.968 4.374-1.273 1.569-1.696 3.597-1.875 5.563-.279 3.052.088 6.106.156 9.156-.03.02 1.583 2.436 3.594 5.407 2.01 2.97 3.658 5.363 3.687 5.343.04-3.987-.593-8.258.906-12.062 1.959-4.97 8.276-5.714 12.876-6.25 1.047-.122 1.561-.141 2.593-.281 1.846-.251 3.662-.549 5.5-.844 1.838-.296 3.698-.589 5.531-.906 7.314-1.268 14.571-2.768 21.907-3.907 4.3-.667 8.64-1.068 12.969-1.5 12.147-1.21 24.025-4.275 36.156-5.562 2.938-.312 5.856-.673 8.812-.75 4.462-.117 8.97.143 13.406-.469 1.659-.229 3.348-.589 4.969-1 11.15-2.825 21.905-7.142 33.281-9.062 1.924-.325 3.854-.546 5.782-.844 2.239-.347 4.595-.699 6.844-.219 1.573.336 3.101.998 4.562 1.656 2.886 1.3 5.641 2.87 8.312 4.563 9.059 5.739 17.773 12.905 25 20.812.03-.019-1.561-2.398-3.531-5.312-1.969-2.915-3.596-5.239-3.625-5.219-7.234-7.914-15.933-15.1-25-20.844-2.909-1.843-5.92-3.555-9.094-4.906-1.22-.52-2.479-1.065-3.781-1.344-1.265-.27-2.554-.265-3.843-.156Zm-396.626-35.563c.345 3.064.791 6.102 2.157 8.907.54 1.11 1.297 2.127 2 3.187-.075-.095-.287-.381-.219-.281.19.279.372.565.562.844.418.617.795 1.292 1.188 1.875 1.847 2.733 3.722 5.471 5.594 8.187.864 1.254 1.848 2.414 3.031 3.375 2.382 1.936 5.226 3.233 7.906 4.688 1.68.911 3.297 1.94 4.907 2.968 4.32 2.762 8.558 5.641 12.874 8.407 3.004 1.924 6.084 3.732 9.126 5.593.303.186.604.375.906.563a2547.293 2547.293 0 0 1-17.188 10.031c-.029.02 1.556 2.424 3.532 5.344 1.975 2.92 3.595 5.27 3.624 5.25 6.503-3.771 13.041-7.497 19.5-11.344.992-.59 1.981-1.211 2.969-1.812.325.187.648.369.969.562 1.098.66 2.32 1.247 3.5 1.75.206.088.729.399.969.25.213-.131-.202-.712-.438-1.062-.733-1.089-1.482-2.163-2.219-3.25.459-.33.91-.674 1.407-.938.966-.512 2.132-.606 3.25-.5.488.098.975.176 1.469.25.718.219 1.406.512 2.124.719.776.223 1.547.544 2.344.687.149.027.549.131.563-.124.001-.031.017-.069 0-.094-.026-.039-.037-.087-.063-.125-.874-1.309-1.787-2.594-2.656-3.907-1.476-2.228-2.922-4.477-4.469-6.656-.108-.153-.35-.14-.531-.187-.428-.113-.847-.194-1.281-.281-.549-.112-1.106-.21-1.657-.313-.515-.097-1.036-.203-1.562-.281-.189-.061-.368-.144-.562-.188-.194-.043-.397-.005-.594-.031-.301-.058-.613-.077-.906-.156-2.293-.619-4.522-1.537-6.75-2.344-1.211-.438-2.411-.855-3.626-1.281-2.66-.935-5.347-1.874-8.093-2.532-1.018-.243-2.102-.513-3.157-.468-.037.001-.852.113-.843.218-4.431-2.873-8.908-5.664-13.281-8.624-3.638-2.463-7.284-5.029-11.094-7.219-1.638-.942-3.347-1.775-5-2.688-.651-.359-1.212-.852-1.844-1.25-.413-1.665-.838-3.325-1.156-5 .029-.02-1.59-2.415-3.594-5.375-2.004-2.959-3.658-5.364-3.688-5.344Zm457-11.124c-.147 1.555-.278 3.113-.531 4.656-.091.556-.16 1.199-.406 1.718-.299.631-.871 1.248-1.313 1.782-.824.996-1.723 1.918-2.656 2.812-3.113 2.988-6.631 5.585-10.218 7.969a117.572 117.572 0 0 1-13.282 7.625c-2.523 1.239-5.139 2.515-7.844 3.312-4.814 1.419-9.708 2.56-14.343 4.532-1.585.674-4.28 1.856-5 3.562-.111.263-.274.854-.094 1.125.005.007-.005.024 0 .031-.006-.009.017.02.031.032 1.182 1.753 2.381 3.496 3.563 5.25 1.181 1.754 2.361 3.509 3.562 5.25.005.007-.005.024 0 .031.137.201.7.409.875.5.737.383 1.506.726 2.25 1.094 2.86 1.411 5.715 2.783 8.563 4.219 2.207 1.112 4.259 2.518 6.343 3.843 3.279 2.084 6.562 4.155 9.813 6.281 7.764 5.08 15.298 10.484 22.156 16.75.031-.02-1.622-2.507-3.687-5.562-2.066-3.055-3.751-5.521-3.782-5.5-5.911-5.801-12.477-10.758-19.406-15.281-4.085-2.667-8.244-5.185-12.468-7.625-1.939-1.12-3.891-2.172-5.844-3.219 2.751-1.263 5.673-2.229 8.562-3.063 2.462-.71 5.003-1.226 7.406-2.124 3.934-1.471 7.706-3.376 11.376-5.407 4.002-2.215 7.915-4.633 11.624-7.312 2.885-2.084 5.63-4.334 8.126-6.875a24.78 24.78 0 0 0 2.374-2.782c.157-.215.355-.446.469-.687.34-.717.393-1.609.5-2.375.186-1.325.312-2.669.438-4 .029-.02-1.555-2.393-3.531-5.312-1.977-2.92-3.596-5.27-3.626-5.25Zm52.094-188.626c-.692.396-1.086 2.493-1.312 3.188-1.019 3.129-1.518 6.339-2.156 9.562-2.384 12.032-5.729 23.817-8.782 35.688-1.076 4.185-2.057 8.399-3.094 12.594-.934 3.783-2.017 7.516-2.906 11.312-2.114 9.035-3.79 18.205-4.75 27.438-.459 4.42-.742 8.837-.844 13.281-.242 10.65.221 21.309-1.124 31.906-1.17 9.21-4.677 17.95-7.344 26.781a120.557 120.557 0 0 0-2.063 7.657c-1.218 5.254-2.078 10.635-3.937 15.719a37.599 37.599 0 0 1-4.375 8.468c-.048.032 2.527 3.926 5.75 8.688 3.223 4.762 5.859 8.594 5.906 8.562 1.821-2.643 3.302-5.451 4.406-8.468 1.86-5.084 2.688-10.465 3.907-15.719a121.642 121.642 0 0 1 2.062-7.688c2.668-8.832 6.206-17.54 7.375-26.75 1.346-10.598.883-21.255 1.125-31.906.101-4.443.384-8.861.844-13.281.9-8.656 2.417-17.236 4.344-25.719.99-4.361 2.034-8.735 3.281-13.031 1.128-3.889 2.521-7.715 3.781-11.563 2.685-8.201 5.378-16.443 7.5-24.812 1.145-4.516 2.028-9.087 2.75-13.688.23-1.464.474-2.93.812-4.375.168-.713.395-1.427.5-2.156.217.301 1.241 1.788 1.25 1.781-.041-1.793.847-3.842-.25-5.469-3.995-5.929-8.032-11.843-12.062-17.75-.119-.174-.376-.374-.594-.25Z" fill="#ffe6c5"/>
	<path d="M243.156 610.75c-.006-.057-4.688.377-10.437 1-5.75.623-10.381 1.192-10.375 1.25.57 3.362.484 6.789-.032 10.156-.922 6.019-2.733 11.611-1.75 17.782 1.053 6.597 4.112 12.676 5.75 19.124.709 2.789 1.11 5.663 1.563 8.5.398 2.491.81 4.971 1.156 7.469.826 5.955 1.456 11.954 1.563 17.969.044 2.516-.221 5.053-.063 7.562.097 1.534.388 3.049.781 4.532 1.089 4.098 2.928 7.978 4.563 11.875 1.357 3.234 2.477 6.534 3.437 9.906 1.607 5.645 2.756 11.387 3.969 17.125.638 3.017 1.128 6.151 2.063 9.094 1.345 4.231 4.368 7.717 5.594 12 1.672 5.848-.528 11.716-.157 17.625.187 2.971 1.04 5.876 2.063 8.656 1.528 4.156 3.572 8.132 5.656 12.031 1.052 1.969 2.241 3.886 3.125 5.938 1.237 2.871 1.532 6.082 2.875 8.906.852 1.791 2.079 3.161 3.625 4.375.006.057 4.659-.412 10.375-1.031 5.716-.62 10.319-1.162 10.312-1.219-1.545-1.214-2.773-2.585-3.624-4.375-1.344-2.824-1.607-6.035-2.844-8.906-1.026-2.381-2.447-4.616-3.656-6.906-2.843-5.383-5.71-11.029-6.844-17.063-1.215-6.465 1.463-12.936 0-19.375-1.019-4.482-4.079-8.062-5.594-12.344-.495-1.399-.798-2.868-1.125-4.312-.499-2.207-.941-4.442-1.406-6.656-1.206-5.745-2.414-11.497-4.094-17.126-1.057-3.541-2.36-6.946-3.813-10.343-1.766-4.131-3.68-8.364-4.374-12.844-.334-2.151-.158-4.272-.126-6.437.037-2.46-.046-4.921-.187-7.376-.348-6.041-1.148-12.052-2.063-18.031-.378-2.471-.735-4.947-1.187-7.406-1.081-5.876-3.287-11.426-4.813-17.187-.709-2.68-1.353-5.414-1.531-8.188-.337-5.274 1.14-10.482 1.907-15.656.272-1.838.542-3.701.468-5.563-.061-1.544-.376-3.038-.75-4.531Zm513.188-195.625c-.006-.057-4.659.38-10.375 1-5.717.619-10.319 1.193-10.313 1.25 1.301 1.616 2.406 3.239 3.344 5.094 1.306 2.582 2.252 5.328 3.5 7.937 1.016 2.124 2.29 4.125 3.625 6.063 3.821 5.544 8.839 10.156 12.594 15.75 2.967 4.421 4.291 9.591 6.437 14.406a28.93 28.93 0 0 0 3.25 5.531c1.259 1.696 2.722 3.436 3.344 5.5.836 2.776.381 5.635.969 8.438.704 3.358 3.453 6.113 3.562 9.594.056 1.772-.037 3.474-.375 5.218-.659 3.404-2.068 6.774-2.125 10.282-.031 1.929.06 3.833.281 5.75.387 3.338 1.057 6.658 1.063 10.031.005 2.953-.311 5.898-.5 8.843-.389 6.071-.793 12.167-.875 18.25-.058 4.265.037 8.529.375 12.782.187 2.355.63 4.702.719 7.062.202 5.353-1.381 10.842-.156 16.156.261 1.135.672 2.73 1.687 3.438.817.57 2.993.764 3.344 1.906.178.581.005 1.298-.094 1.875-.185 1.079-.424 2.15-.656 3.219-.515 2.37-1.133 4.784-1.219 7.219-.085 2.408 1.166 4.741 2.438 6.719 3.109 4.838 7.124 8.329 11.843 11.531.006.057 4.679-.407 10.438-1.031 5.759-.625 10.412-1.193 10.406-1.25-4.423-3.487-8.741-7.448-11.625-12.344-.947-1.608-2.028-3.465-2.094-5.375-.105-3.07.795-6.198 1.344-9.188.076-.416.149-.832.219-1.25.12-.727.351-1.712.093-2.437-.411-1.158-2.637-1.273-3.5-1.844-1.042-.691-1.536-2.298-1.843-3.438-1.418-5.256.264-10.834.062-16.156-.089-2.36-.5-4.707-.687-7.062-.338-4.253-.433-8.517-.375-12.782.082-6.083.486-12.148.875-18.218.189-2.946.505-5.922.5-8.875-.006-3.373-.677-6.693-1.063-10.031-.221-1.917-.344-3.821-.312-5.75.057-3.508 1.497-6.847 2.156-10.25.338-1.745.431-3.478.375-5.25-.109-3.481-2.889-6.236-3.594-9.594-.588-2.803-.132-5.662-.968-8.438-.622-2.064-2.085-3.803-3.344-5.5a28.93 28.93 0 0 1-3.25-5.531c-2.146-4.816-3.47-9.953-6.438-14.375-3.754-5.594-8.773-10.237-12.594-15.781-1.335-1.938-2.577-3.908-3.593-6.031-1.248-2.61-2.195-5.355-3.5-7.938-.938-1.855-2.075-3.509-3.375-5.125ZM258.5 373.344c-.006-.057-4.627.411-10.344 1.031-5.716.62-10.35 1.162-10.344 1.219 10.505 9.296 14.775 23.579 11.594 37.281-1.301 5.606-4.074 10.715-6.031 16.094-.939 2.582-1.582 5.167-2.031 7.875-3.54 21.341-1.358 43.011-2.625 64.5-1.053 17.844-5.01 35.405-5.657 53.281-.091 2.524-.013 5.039-.124 7.563-.118 2.663-.453 5.332-.844 7.968-.987 6.651-2.752 13.159-3.906 19.782-.459 2.632-.634 5.288-.969 7.937-.283 2.228-.578 4.344-2.063 6.125-1.418 1.701-3.383 2.819-5.375 3.719-2.738 1.237-5.63 2.078-8.343 3.375.006.057 4.649-.413 10.374-1.032 5.726-.618 10.35-1.161 10.344-1.218 3.366-1.491 6.975-2.396 10.25-4.094 1.506-.781 2.967-1.75 4.063-3.062 1.924-2.306 1.988-5.424 2.25-8.282.217-2.372.451-4.711.843-7.062 1.172-7.023 2.745-13.988 3.594-21.063.516-4.295.469-8.593.625-12.906.647-17.876 4.573-35.437 5.625-53.281 1.268-21.489-.914-43.16 2.625-64.5a43.653 43.653 0 0 1 2.063-7.875c1.957-5.379 4.73-10.488 6.031-16.094 3.181-13.703-1.12-27.984-11.625-37.281Z" fill="#ffe6c5"/>
	<path d="M782.406 346.812c-.006-.057-4.627.413-10.344 1.032-5.716.618-10.35 1.161-10.343 1.218-3.36 4.323-6.987 8.431-10.188 12.876-2.841 3.944-5.414 8.251-6.531 13.031-1.594 6.821.332 13.774 1.906 20.406.849 3.575 1.443 7.15 2 10.781 2.304 15.012 4.305 30.076 7.313 44.969.703 3.484 1.328 6.972 2.125 10.437.921 4.007 2.068 7.971 3.25 11.907.006.058 4.708-.404 10.5-1.031 5.791-.628 10.475-1.193 10.468-1.25-1.93-6.888-3.729-13.836-5.312-20.813-1.342-5.915-2.299-11.924-3.281-17.906-1.642-9.997-3.057-20.05-4.594-30.063-.48-3.127-1.019-6.202-1.75-9.281-1.575-6.632-3.531-13.554-1.937-20.375 1.222-5.232 4.201-9.899 7.374-14.156 2.998-4.022 6.267-7.822 9.344-11.782Z" fill="#ffe6c5"/>
	<path d="M541.062 54.531c-4.579-.017-9.176.144-13.718.563-6.603.609-13.119 1.832-19.719 2.468-11.092 1.07-22.244 1.457-33.313 2.813-4.8.588-9.573 1.341-14.312 2.313-2.521.516-5.039 1.154-7.562 1.656-9.431 1.873-19.053 2.48-28.5 4.25-5.87 1.1-11.497 2.847-17.094 4.906-7.796 2.868-15.307 6.461-22.594 10.438-5.16 2.815-10.062 6.067-15.438 8.468-5.564 2.486-11.465 4.462-16.562 7.875-2.666 1.786-5.12 4.011-6.594 6.907-.739 1.451-1.241 3.111-1.281 4.75-.044 1.809-.09 3.627-.094 5.437-.013 5.609.002 11.203.031 16.813.019 3.482 1.987 6.851 4.626 9.031 1.273 1.052 2.771 1.797 4.281 2.437.057 0 .115-4.676.125-10.437.01-5.761-.005-10.438-.063-10.438-.832-.492-1.605-1.16-2.406-1.75 3.318-2.549 7.245-4.327 11.031-5.969 3.762-1.631 7.619-3.149 11.219-5.124 1.704-.936 3.337-1.996 5-3a248.836 248.836 0 0 1 9.187-5.282c8.395-4.595 17.168-8.73 26.282-11.687 12.569-4.078 25.93-4.254 38.812-6.813 2.524-.501 5.042-1.14 7.563-1.656 4.739-.971 9.511-1.693 14.312-2.281 11.068-1.356 22.221-1.774 33.313-2.844 8.067-.778 16.024-2.322 24.125-2.781 8.82-.5 17.734-.21 26.531.531 9.54.803 19.1 2.156 28.406 4.438 3.215.788 6.189 2.284 9.375 3.156 1.531.419 3.102.662 4.657.969 2.671.526 5.322 1.107 7.968 1.75 8.538 2.072 16.92 4.782 25.094 8 15.16 5.967 29.477 13.8 43.938 21.25a2114.564 2114.564 0 0 0 15.374 7.843c2.909 1.468 5.824 2.979 8.782 4.344 2.033.938 4.154 1.728 6.218 2.594 3.174 1.331 6.586 2.703 9.126 5.093.612.577 1.038 1.236 1.374 1.969.008 4.564.046 8.844.094 8.844.274-2.457.323-4.782.406-7.156.023.272.063.8.063.593v-1.656c.017-.718.123-1.368.125-2.125.012-5.542.011-11.083-.031-16.625-.008-.994-.176-2.254-.719-3.125-1.382-2.214-3.905-3.582-6.156-4.719-3.893-1.965-8.063-3.315-11.969-5.25-9.397-4.654-18.743-9.41-28.063-14.218-5.999-3.096-11.961-6.263-18-9.281-12.176-6.086-24.784-11.374-37.874-15.157a187.602 187.602 0 0 0-13.032-3.25c-2.438-.518-4.938-.842-7.344-1.5-3.186-.872-6.16-2.368-9.374-3.156-10.444-2.56-21.22-3.998-31.938-4.719a216.259 216.259 0 0 0-13.688-.5Z" fill="#675169"/>
	<path d="M367.875 96.906c-1.571.407-3.143.922-4.531 1.781-5.235 3.24-7.52 10.272-7.594 16.125-.058 4.577-.119 9.142-.125 13.719-.006 4.207-.127 8.514.406 12.719 1.121 8.845 4.638 17.931 9.531 25.375.058 0 .115-4.657.126-10.406.01-5.75-.037-10.406-.094-10.407-3.754-5.71-6.471-12.169-8.188-18.781.357-.863.762-1.729 1.282-2.5 2.1-3.114 5.729-5.31 9.156-6.687.058 0 .084-4.688.094-10.469.009-5.781-.005-10.469-.063-10.469Z" fill="#675169"/>
	<path d="M374.969 93.094c-.76-.054-2.044.991-2.594 1.437-2.341 1.897-4.314 4.252-6.187 6.594-.586.733-1.093 1.531-1.657 2.281.004-1.197.03-2.396.031-3.594.001-.513-.035-1.018-.062-1.53-.004-.074.004-.146 0-.22-.001-.016-.016-.024-.031-.03-.882-.371-1.447.339-1.75 1.093-.488 1.213-.581 2.538-.969 3.781-.423 1.357-1.091 2.657-1.562 4-.523 1.488-.892 3.01-1.282 4.532a238.889 238.889 0 0 0-2.375 5.531c-.09.22-.14.503-.25.75-.245-.506-.446-1.024-.687-1.531a40.292 40.292 0 0 0-.063-.438c-.022-.146-.038-.292-.062-.438-.015-2.97-.025-6.843-.063-6.843-.184.404-.246.839-.406 1.25-.08-.627-.294-1.739-1.094-1.438-.417.157-.747.523-.968.938-.067-.008-.08-.105-.157-.094-.561.08-.623.637-.625 1.125-.003.844.003 1.688 0 2.531-.146-.336-.31-.67-.468-1-.343-.711-1.029-2.359-2.094-2.125-.358.079-.768.475-.875.875-.106-.138-.171-.302-.281-.437-.592-.722-2.497-2.731-3.657-1.938a.499.499 0 0 0-.187.375c-.03 6.912-.058 13.808-.063 20.719-.001 1.11.817 2.337 1.344 3.219.634 1.06 1.295 2.015 2 3.031 1.358 1.958 2.778 3.862 4.219 5.75.034.22.047.434.094.656.127.615.41 1.524 1.218 1.406.06-.008.099-.046.156-.062.795 1.08 1.651 2.115 2.376 3.25.747 1.172 1.42 2.392 2.218 3.531.128.183.486.815.782.781.087-.01.093-.075.093-.156.003-.884-.002-1.771 0-2.656 1.46 2.071 2.843 4.186 4.313 6.25 2.933 4.121 5.723 8.293 8.125 12.75.767 1.424 1.041 3.075 1.656 4.562.098.238.382 1.14.813 1.063.122-.022.374-.216.374-.344.05-6.943.026-13.901.032-20.843 0-.164-.229-.499-.282-.626-.163-.396-.305-.791-.468-1.187-.554-1.34-1.134-2.691-1.688-4.031-.909-2.203-1.779-4.417-2.75-6.594-1.243-2.789-2.631-5.527-3.812-8.344-.022-.051-.041-.104-.063-.156a68.17 68.17 0 0 1 1.625-3.75c1.501-3.182 3.185-6.4 5.406-9.156.738-.916 1.566-1.755 2.282-2.688.136-.177.468-.577.468-.844V114c.011-2.759-.005-5.522 0-8.281.008-4.148.036-8.29.032-12.438v-.094c0-.059-.092-.09-.125-.093Zm-12.563 33.875c-.022 1.538-.055 2.373-.062 5-.415-.572-.773-1.178-1.188-1.75.07-.188.16-.371.219-.563.14-.454.142-.931.187-1.406.294-.421.549-.866.844-1.281Zm331.875-22.344c-1.801-.097-3.6.058-5.5.375-.058 0-.115 4.746-.125 10.594-.01 5.848.004 10.593.063 10.594 3.195-.037 6.834.27 10.031 1.343-.597.891-1.138 1.815-1.812 2.625-1.491 1.792-3.196 3.401-4.626 5.25-.862 1.116-1.64 2.273-1.75 3.688v.031c-.006.089-.062.159-.062.25-.016 6.53-.006 13.063.031 19.594 0 .088-.071.334 0 .281v.625c.002.322.408.588.688.625 1.007.134 2.39-1.256 3-1.844.825-.795 1.623-1.629 2.25-2.594 1.193-1.834 2.034-3.833 3.312-5.624 2.486-3.483 5.19-6.811 7.813-10.188.737.321 2.137-.408 2.594-.625 2.947-1.402 5.663-3.292 8.374-5.094.058 0 .116-4.656.126-10.406.009-5.75-.037-10.406-.094-10.406-1.587 1.054-3.248 2.006-4.875 3 .003-2.032.029-4.063.031-6.094 0-.025-.009-.082-.031-.094-.098-.054-.13.216-.188.313-.344.584-.684 1.167-1.031 1.75-.521.875-1.039 1.729-1.625 2.562-.416.592-.886 1.136-1.313 1.719-.682.39-1.358.785-1.937 1.313-.128.116-.436.423-.437.656V119c-.002.333.001.667 0 1-.685.881-1.331 1.784-2.032 2.656.009-3.002.031-5.997.032-9 0-1.534-.038-3.102-.813-4.468-.971-1.714-2.927-2.716-4.687-3.407a17.107 17.107 0 0 0-5.407-1.156ZM172.125 617.469c-.043-.038-3.145 3.427-6.937 7.75-3.793 4.322-6.856 7.837-6.813 7.875 1.259 1.967 2.268 4.039 2.594 6.375.717 5.14-1.628 10.098-1.969 15.187-.445 6.646.55 13.299.094 19.938-.39 5.676-1.748 11.272-1.875 16.968-.046 2.071.166 4.096.343 6.157.198 2.297.405 4.611.626 6.906.704 7.332 1.601 14.635 2.562 21.937 3.184 24.203 7.719 48.209 12.406 72.157 1.686 8.614 3.521 17.194 5.188 25.812 1.006 5.201 1.851 10.426 3.031 15.594a218.578 218.578 0 0 0 3.594 13.656c.928 3.122 1.945 6.194 2.656 9.375 1.134 5.075 1.956 10.563 3.969 15.375.815 1.949 2.234 4.173 4.594 4.281 1.489.069 2.991-.873 3.968-1.937 1.775-1.931 3.582-3.841 5.313-5.813 3.656-4.164 7.245-8.379 10.843-12.593.985-1.154 1.755-2.593 2.438-3.938 1.143-2.25 2.265-4.797 2.562-7.343-.043-.039-3.201 3.475-7.062 7.874-2.724 3.105-3.747 4.351-4.875 5.688-2.164-1.619-3.073-4.85-3.75-7.219-1.395-4.879-2.219-9.926-3.687-14.781-.884-2.921-1.924-5.808-2.844-8.719-2.203-6.969-4.298-13.967-6.063-21.062-1.23-4.944-2.152-9.975-3.156-14.969-1.729-8.599-3.409-17.205-5.094-25.812-5.833-29.803-10.898-59.82-13.5-90.094-.226-2.636-.437-5.261-.25-7.906.362-5.112 1.43-10.138 1.781-15.25.456-6.639-.538-13.261-.093-19.907.341-5.09 2.686-10.078 1.969-15.219-.327-2.336-1.304-4.376-2.563-6.343Z" fill="#675169"/>
	<path d="M206.969 832.75c-.043-.038-3.175 3.426-6.969 7.75-3.794 4.324-6.824 7.868-6.781 7.906.421 1.657.892 3.39 1.937 4.782.717.954 1.704 1.337 2.719 1.874 1.093.58 2.081 1.145 3.313 1.407 5.382 1.146 11.566-1.602 16.468-3.375 1.322-.478 2.635-.934 3.969-1.375.043.038 3.178-3.428 6.969-7.75 3.791-4.323 6.824-7.869 6.781-7.907a223.07 223.07 0 0 0-5.344 1.844c-1.366.492-2.745 1.016-4.125 1.469-3.463 1.136-7.336 2.218-11 1.437-1.09-.232-2.419-.663-3.281-1.406-.652-.561-1.103-1.401-1.594-2.094-1.067-1.506-2.166-2.938-3.062-4.562Zm646.219-198.312c.373 2.449-.207 4.797-.844 7.156-.387 1.43-.795 2.854-.844 4.344-.107 3.266.96 6.429 1.062 9.687.071 2.258-.203 4.539-.437 6.781-.332 3.185-.702 6.361-.844 9.563-.344 7.789-.528 15.599-1.125 23.375-.64 8.339-1.592 16.67-2.625 24.968-1.829 14.702-4.159 29.347-7.062 43.876-1.985 9.931-5.759 19.417-7.875 29.312-.975 4.559-1.432 9.195-2.438 13.75-2.06 9.331-5.5 18.628-11.25 26.344-.809 1.086-1.608 2.307-2.687 3.156-1.098.864-2.415 1.449-3.688 2-1.996.865-4.056 1.585-6.093 2.344-1.356.504-2.752.971-4.032 1.656-.279.149-.822.4-.937.75-.078.236.104.518.281.656.059.046.128.079.188.125 1.002.78 1.996 1.565 3 2.344-.054.38-.158.76-.344 1.094-.056.099-.156.128-.219.219a2558.729 2558.729 0 0 0-7.687-5.876c-1.587-1.206-3.909-1.222-5.782-1.562-.032.041 3.455 2.779 7.438 5.875-.051.681.019 1.322.687 1.844a4154.227 4154.227 0 0 0 16.313 12.656c1.738 1.343 4.48 1.814 5.718-.406.166-.296.642-1.725.313-2-.336-.282-.695-.532-1.031-.813-.683-.569-1.376-1.122-2.063-1.687.363-.32.877-.631 1.063-.719.193-.091.397-.168.594-.25.453-.189.917-.384 1.374-.562 2.554-.996 5.14-1.847 7.657-2.938 1.272-.552 2.589-1.136 3.687-2 1.08-.849 1.91-2.07 2.719-3.156a52.777 52.777 0 0 0 1.906-2.782c3.394-5.252 5.863-11.086 7.657-17.062 1.11-3.701 1.95-7.472 2.593-11.281.505-2.986.898-6.006 1.531-8.969 2.117-9.895 5.891-19.381 7.876-29.312 3.281-16.423 5.83-32.99 7.75-49.626.956-8.286 1.649-16.606 2.468-24.906.374-3.789.698-7.577.969-11.375.199-2.795.35-5.585.625-8.375.442-4.484 1.342-9.009 1.219-13.531-.086-3.122-1.068-6.132-1.125-9.25-.051-2.811 1.084-5.481 1.406-8.25.167-1.436.049-2.817-.281-4.219.036-.046-3.686-2.977-8.313-6.562-4.627-3.585-8.433-6.453-8.468-6.406Zm-517.876-514c-1.44-.181-2.851-.039-4.25.343-7.436 2.032-10.922 9.584-15.937 14.688-1.762 1.793-3.732 3.394-5.687 4.969-5.227 4.209-10.74 8.007-15.657 12.593-7.346 6.853-13.495 14.787-19.406 22.875-2.001 2.739-3.995 5.514-6 8.25-1.264 1.725-2.471 3.5-3.937 5.063-3.281 3.495-7.445 6.09-10.5 9.812-3.366 4.099-5.233 9.2-8.626 13.281-3.859 4.643-8.591 8.579-12 13.594-7.011 10.319-12.569 21.516-19 32.188-4.677 7.763-9.618 15.338-14.156 23.187-3 5.189-5.929 10.429-8.312 15.938-2.774 6.411-4.907 13.123-6.156 20-.619 3.402-.911 6.84-1.219 10.281-.121 1.344-.275 2.711-.25 4.062.029 1.594.255 3.177.5 4.75.234 1.505.526 3.108 1.25 4.469.167.314.373.712.656.938a855.607 855.607 0 0 0 9.906 7.812c2.491 1.93 5.036 3.804 7.563 5.688.213.159.411.341.625.5 1.284.957 2.939-.323 4.219-.688.03-.039-3.529-2.829-7.032-5.562a26.864 26.864 0 0 1-.094-2.938c.035-2.336-.078-4.666.063-7 .24-3.968.745-7.95 1.563-11.843 2.463-11.734 7.375-23.172 13.187-33.626 3.417-6.145 7.24-12.104 10.969-18.062 4.679-7.478 8.913-15.183 13.281-22.844a231.469 231.469 0 0 1 7.063-11.625c.891-1.369 1.741-2.782 2.718-4.093 3.579-4.803 8.31-8.594 11.906-13.376 3.071-4.082 4.96-8.983 8.344-12.843 2.34-2.669 5.201-4.774 7.813-7.157a37.218 37.218 0 0 0 4.093-4.374c1.889-2.38 3.593-4.916 5.376-7.376 3.91-5.395 7.824-10.816 12.093-15.937 3.841-4.607 7.967-8.973 12.5-12.906 2.443-2.12 5.043-4.057 7.625-6 2.593-1.952 5.146-3.937 7.625-6.031 1.706-1.441 3.378-2.906 4.844-4.594 4.589-5.285 8.262-12.017 15.687-13.563 3.181-.662 6.049.672 9.032 1.563a22.39 22.39 0 0 0 3.218.687c.036-.045-3.612-2.946-8.156-6.469-4.544-3.522-8.277-6.357-8.312-6.312a21.968 21.968 0 0 1-3.188-.688c-1.93-.576-3.83-1.372-5.844-1.624ZM185.875 344.094c-2.381 3.055-4.471 6.32-6.156 9.812-3.502 7.257-5.246 15.164-6.407 23.094-1.197 8.178-1.581 16.556-3.593 24.594-1.219 4.869-2.846 9.62-4.531 14.344-1.019 2.855-2.265 5.712-3 8.656-.687 2.745-.794 5.583-1.188 8.375-.324 2.295-.884 4.59-1.531 6.812-1.879 6.454-4.62 12.67-5.813 19.313-.896 4.99-.928 10.072-1 15.125a191.675 191.675 0 0 1-.5 11.593c-.664 8.871-1.855 17.696-2.125 26.594-.284 9.363.555 18.706.688 28.063.095 6.704-.359 13.389 0 20.093.336 6.279.833 12.521 1.406 18.782.574 6.274 1.215 12.542 1.375 18.844.049 1.944-.246 3.817-.5 5.75-.278 2.108-.525 4.218-.625 6.343-.071 1.502-.263 3.307.219 4.781.142.435.364.639.75.938a5535.682 5535.682 0 0 0 17.594 13.625c1.741 1.342 4.168 1.005 6.124.406 3.634-1.113 6.811-3.267 9.969-5.312.039-.05-3.97-3.213-8.937-7.063-3.955-3.065-5.987-4.57-7.219-5.468-.009-1.577-.094-3.151-.187-4.719a166.641 166.641 0 0 0-.719-8.5c-.992-8.898-2.462-17.768-2.875-26.719-.25-5.418.111-10.803.125-16.219.012-5.125-.247-10.255-.469-15.375-.267-6.146-.439-12.289-.125-18.437.429-8.398 1.568-16.736 2.094-25.125.211-3.371.358-6.747.406-10.125.072-5.052.073-10.135.969-15.125 1.135-6.324 3.775-12.205 5.562-18.344.743-2.552 1.441-5.144 1.813-7.781.393-2.792.47-5.63 1.156-8.375.736-2.944 2.012-5.801 3.031-8.656 1.959-5.488 3.852-11.049 5.094-16.75.574-2.637.909-5.295 1.25-7.969.604-4.736 1.058-9.495 1.75-14.219 1.161-7.929 2.904-15.837 6.406-23.094 1.686-3.492 3.776-6.757 6.156-9.812.036-.046-3.611-2.916-8.156-6.438s-8.246-6.358-8.281-6.312Z" fill="#675169"/>
	<path d="M839.969 314.125c8.641 22.405 12.814 46.102 16 69.813.965 7.183 1.668 14.422 2.469 21.624 2.243 20.194 4.616 40.374 5.906 60.657.512 8.05.908 16.12.968 24.187.044 5.842-1.002 11.591-1.656 17.375a153.247 153.247 0 0 0-.656 7.594c-.829 13.121-.54 26.291-1.438 39.406-.298 4.358-.64 8.718-1.093 13.063-.593 5.679-1.281 11.354-1.531 17.062-.111 2.514-.204 5.015-.094 7.532.16 3.687.536 7.429-.094 11.093-.17.99-.399 1.959-.812 2.875-.931 2.062-2.47 3.773-3.438 5.813-.534 1.125-.796 2.149-1.156 3.343a312.15 312.15 0 0 0-1.094 3.688c-1.632 5.629-2.899 11.378-2.156 17.25-.035.045 3.611 2.916 8.156 6.438 4.545 3.521 8.277 6.357 8.312 6.312-.742-5.871.525-11.621 2.157-17.25.4-1.38.679-2.313 1.093-3.688.36-1.194.623-2.218 1.157-3.343 1.193-2.514 3.3-4.611 3.969-7.375 1.308-5.41.173-11.017.312-16.5.25-9.85 1.828-19.588 2.5-29.406.331-4.833.589-9.659.75-14.5.321-9.681.358-19.393.969-29.063.16-2.538.37-5.067.656-7.594.654-5.784 1.7-11.533 1.656-17.375-.078-10.382-.69-20.774-1.469-31.125-1.45-19.265-3.71-38.427-5.843-57.625-1.958-17.617-3.69-35.345-7.313-52.718-2.458-11.788-5.837-23.334-10.344-34.5.037-.047-3.69-2.989-8.343-6.594-4.654-3.605-8.464-6.516-8.5-6.469Z" fill="#675169"/>
	<path d="M731.812 127.438c-1.031-.205-2.118-.184-3.343.124-.04-.042-3.556 3.106-7.844 7.032-4.288 3.925-7.727 7.144-7.687 7.187 4.063-.984 6.56 1.365 9.562 3.781.955.769 1.956 1.485 2.938 2.219 5.51 4.125 10.23 9.147 14.781 14.281 1.79 2.02 3.569 4.06 5.343 6.094.597.685 1.2 1.486 1.844 2.125.715.71 1.498 1.363 2.25 2.031 7.507 6.679 15.159 13.211 22.094 20.5 5.926 6.23 11.423 12.974 16.5 19.907 3.182 4.345 6.238 8.778 9.375 13.156 4.965 6.929 10.096 13.807 14.281 21.25 2.862 5.09 5.197 10.445 7.25 15.906 1.405 3.737 2.545 7.604 4.25 11.219 2.994 6.346 6.936 12.181 10.219 18.375 1.827 3.447 3.535 7.016 4.5 10.813.685 2.692.968 5.67.969 8.5-.345.252-.735.444-1.063.718-.026.026-.068.037-.093.063-.155.131-.351.207-.5.343a4888.5 4888.5 0 0 0-12.563 11.5c-.06.055-.095.166-.187.25-.284.257-.694.578-.626.719.082.167.555.023.657 0 .518-.114 1.03-.295 1.531-.469 2.405-.832 4.753-1.819 7.094-2.812 1.376-.584 2.751-1.193 4.125-1.781.158-.068 1.062-.532 1.219-.5.749.15 1.262.788 1.937 1.093.242.11.628.253.875.032.072-.064.147-.124.219-.188 1.873-1.706 3.719-3.419 5.593-5.125 2.7-2.456 5.399-4.88 8.063-7.375.049-.045.107-.08.156-.125.508-.467-.341-2.003-.469-2.5-.009-.01-1.525 1.361-1.968 1.75-.169-.091-.306-.243-.5-.281-.165-.032-1.086.461-1.25.531-.977.418-1.961.833-2.938 1.25-.596.255-1.215.465-1.812.719 1.743-1.6 3.51-3.177 5.25-4.781.997-.92 1.112-3.217 1.156-4.407.119-3.191-.21-6.706-1-9.812-.965-3.797-2.673-7.366-4.5-10.812-3.283-6.194-7.225-12.029-10.219-18.376-1.509-3.2-2.532-6.59-3.75-9.906-1.927-5.246-4.084-10.441-6.719-15.375-5.123-9.596-11.861-18.258-18.156-27.093-2.925-4.106-5.784-8.274-8.844-12.282-4.459-5.842-9.305-11.326-14.187-16.812-6.807-7.65-13.699-15.197-21.281-22.094-3.284-2.987-5.824-6.658-8.656-10.062-4.696-5.645-9.735-10.97-15.657-15.344-2.723-2.012-5.124-4.544-8.219-5.156Z" fill="#675169"/>
	<path d="M508.219 25.625a322.38 322.38 0 0 0-14.813.219c-23.565.888-47.04 4.32-69.844 10.343a321.877 321.877 0 0 0-43.406 14.876c-50.862 21.565-95.047 55.908-131.468 97.187a441.978 441.978 0 0 0-62.813 92.594c-8.441 16.663-15.818 33.878-22.187 51.437-18.936 52.201-28.596 107.336-31.532 162.688-1.369 25.82-1.463 51.701-.218 77.531.607 12.619 1.589 25.231 2.718 37.812 3.737 41.624 10.716 82.837 19.282 123.719a1741.846 1741.846 0 0 0 16.374 70.75c6.375 25.152 13.184 50.188 20.782 75 6.227 20.335 12.935 40.57 20.937 60.281-.109.075 5.796 9.012 13.219 19.969 7.423 10.958 13.547 19.793 13.656 19.719-7.892-19.441-14.331-39.499-20.437-59.562-8.344-27.413-15.815-55.083-22.657-82.907-8.31-33.798-15.926-67.814-22.156-102.062-5.572-30.633-9.896-61.497-12.781-92.5-1.04-11.175-1.722-22.388-2.313-33.594-4.036-76.672 3.006-154.612 27.594-227.656 9.548-28.364 21.754-55.866 36.625-81.844a441.093 441.093 0 0 1 62.657-84.281c36.238-38.217 79.575-69.451 128.718-88.813a319.498 319.498 0 0 1 43.532-13.656c47.995-11.354 98.323-11.204 146.468-.719 43.626 9.501 85.37 27.295 122.813 51.563 26.33 17.065 50.593 37.368 71.969 60.343a369.171 369.171 0 0 1 20.187 23.594c.064.082.123.168.187.25 13.105 22.227 23.938 45.772 31.532 70.469 6.43 20.913 10.203 42.458 13.437 64.063 4.207 28.103 7.078 56.408 8.657 84.781 2.15 38.671 1.985 77.497-.938 116.125-1.462 19.327-3.905 38.527-6.344 57.75-2.589 20.407-5.216 40.814-8.062 61.187-11.986 85.807-28.25 172.957-67.688 250.907-.107.072 5.649 8.792 12.875 19.468 7.226 10.677 13.175 19.26 13.281 19.188 40.329-79.711 56.221-168.63 68.469-256.313 2.594-18.572 4.952-37.178 7.313-55.781 1.287-10.142 2.645-20.277 3.781-30.438a777.156 777.156 0 0 0 3.313-38.406c3.126-50.656 1.657-101.572-3.657-152.031a862.912 862.912 0 0 0-6.562-48.813c-1.669-10.211-3.427-20.438-5.719-30.531a314.19 314.19 0 0 0-10.938-37.25c-6.612-18.286-14.897-35.961-24.593-52.812-7.897-13.723-16.824-26.832-25.688-39.938-4.103-6.068-8.21-12.13-12.375-18.156-7.422-10.74-15.179-21.206-23.562-31.219-14.263-17.035-30.067-32.791-47.094-47.062-37.69-31.59-81.519-56.03-128.406-70.938-32.987-10.488-67.51-16.25-102.125-16.531Z"/>
	<path d="M816.875 871.188c-.869 4.051-2.057 8.005-3.625 11.843-10.202 24.982-34.092 41.869-57.438 53.5a244.653 244.653 0 0 1-12.281 5.688 292.115 292.115 0 0 1-18.25 7.156c-7.732 2.736-15.571 5.161-23.469 7.375-9.34 2.619-18.775 4.896-28.25 6.969-25.441 5.565-51.283 9.245-77.187 11.812-24.832 2.461-49.77 3.832-74.719 4.25-31.594.531-63.194-.473-94.687-3.062-25.334-2.083-50.601-5.168-75.625-9.657-19.751-3.542-39.381-7.888-58.625-13.593-14.229-4.218-28.312-9.18-41.781-15.438-10.438-4.849-20.644-10.482-29.657-17.687-.288-.231-.558-.485-.843-.719-.311-1.626-.602-3.267-.688-4.937.078-.053-4.153-6.413-9.438-14.219-5.284-7.807-9.609-14.084-9.687-14.031.371 7.348 3.103 14.075 7.187 20.156 6.015 8.954 12.081 17.868 18.157 26.781 8.626 12.654 21.762 21.491 35.093 28.563 10.01 5.308 20.514 9.698 31.157 13.562 14.189 5.152 28.698 9.361 43.343 13 27.872 6.927 56.268 11.75 84.75 15.34 37.606 4.75 75.541 7.22 113.438 7.66 36.271.42 72.605-.99 108.656-5.09 25.256-2.88 50.408-7.014 75.063-13.254 8.721-2.207 17.384-4.647 25.937-7.437a308.435 308.435 0 0 0 20.406-7.438c4.752-1.929 9.447-3.983 14.063-6.219 23.889-11.568 48.585-28.631 59.031-54.062 1.574-3.83 2.75-7.799 3.625-11.844.097-.065-5.12-7.937-11.656-17.594-6.536-9.656-11.903-17.44-12-17.374Z"/>
	<path d="M501.875 907.75c-.483.052-.952.28-1.281.688a1.92 1.92 0 0 0 .281 2.687c1.101.887 2.227 1.758 3.344 2.625.741.576 1.277.925 1.906 1.625.522.58.923 1.262 1.406 1.875a60.826 60.826 0 0 0 3.688 4.281c.636.668 1.288 1.29 2 1.844-.143.468-.394.899-.5 1.375-1.096 4.912-.764 10.165-.25 15.125.379 3.663.914 7.282 1.562 10.906.403 2.25.934 4.497 1.313 6.75.567 3.375 1.023 6.755 1.625 10.125 1.155 6.467 2.48 12.901 3.906 19.313.227 1.022 1.259 1.665 2.281 1.437a1.882 1.882 0 0 0 1.438-2.25c-1.502-6.752-2.902-13.529-4.094-20.344-.512-2.924-1.06-5.862-1.406-8.812-.261-2.221-.341-4.486-.438-6.719-.17-3.945-.226-7.9 0-11.843.217-3.775.504-7.839 1.969-11.376.25-.603.58-1.268 1.031-1.75.485-.517 1.226-.737 1.5-1.5.298-.828.454-1.681.688-2.531.179-.651-.398-1.952-.75-2.5-.647-1.006-1.644-1.589-2.656-2.187-.558-.33-1.111-.71-1.688-1-.751-.377-1.637-.606-2.438-.844a124.433 124.433 0 0 1-3.75-1.188c-1.323-.438-2.741-.837-4-1.437-.816-.389-1.32-.823-2.031-1.375-1.098-.853-2.167-1.721-3.25-2.594a1.917 1.917 0 0 0-1.406-.406Z"/>
	<path d="M519.375 868.719a1.905 1.905 0 0 0-2.094 1.687c-.419 3.927-1.421 7.772-2.5 11.563-.442 1.556-.834 3.162-1.375 4.687-.415 1.17-.959 2.292-1.437 3.438-.954 2.284-1.883 4.576-2.719 6.906-1.184 3.299-2.181 6.751-2.531 10.25-.111 1.105-.244 2.354.093 3.438.228.73.732 1.434 1.188 2.031.936 1.223 2.083 2.289 3.438 3.031.63.346 1.329.515 1.968.844.445.229.845.568 1.282.812.767.429 1.569.737 2.406 1a1.898 1.898 0 0 0 1.125-3.625c-.674-.21-1.342-.455-1.938-.843-.186-.122-.431-.196-.562-.376-.167-.227-.236-1.016-.25-1.281-.044-.794.126-1.595.375-2.343.11-.333.336-.761.344-1.126.012-.599-.333-1.27-.469-1.843-.261-1.097-.36-2.251-.407-3.375-.153-3.681.373-7.374.938-11 .252-1.615.437-3.285.812-4.875.47-1.985 1.175-3.94 1.719-5.907 1.002-3.615 1.881-7.264 2.281-11a1.903 1.903 0 0 0-1.687-2.093Zm-144.437-13.938c-.427-.001-.86-.028-1.282.031-.483.069-1.034.334-1.5.532-.773.329-1.54.668-2.312 1a942.03 942.03 0 0 0-5.563 2.406c-6.653 2.91-13.304 5.878-19.875 8.969-9.241 4.346-18.209 9.104-27.031 14.25a194.208 194.208 0 0 0-8.906 5.531 4.918 4.918 0 0 0-1.063.281c-.498.187-1.004.365-1.468.625-1.152.645-1.77 1.295-2.563 2.375-1.267 1.726-1.402 4.268-1.375 6.313.065 4.947.601 9.908 1.219 14.812a209.946 209.946 0 0 0 3.281 19.032c.919 4.162 1.925 8.313 2.875 12.468.454 1.988.959 3.96 1.313 5.969.331 1.885.467 3.819.687 5.719.424 3.662.851 7.311 1.313 10.968.26 2.062.41 4.233.937 6.25.341 1.283 1.655 2.06 2.937 1.719a2.39 2.39 0 0 0 1.688-2.937c-.349-1.243-.395-2.632-.562-3.906a542.217 542.217 0 0 1-.907-7.407c-.425-3.625-1.01-7.29-1.187-10.937-.133-2.735-.06-5.482-.032-8.219.052-4.944.161-9.899.157-14.844-.006-5.779-.278-11.55-.719-17.312-.228-2.973-.505-5.959-.625-8.938-.021-.532-.032-1.064-.063-1.593 1.098-.678 2.144-1.475 3.188-2.219 3.433-2.447 6.96-4.744 10.5-7.031 3.117-2.014 6.226-4.056 9.406-5.969 7.931-4.771 16.071-9.173 24.25-13.5 3.13-1.656 6.259-3.316 9.406-4.938 1.027-.528 2.066-1.038 3.094-1.562.28-.143.564-.295.844-.438l.25.031c.916.111 1.834.235 2.75.344 2.633.314 5.273.6 7.906.906 7.969.929 15.93 1.826 23.906 2.688 5.77.624 11.531 1.563 17.282 2.344 10.539 1.43 21.08 2.78 31.656 3.906 4.859.517 9.713 1.033 14.594 1.281 2.516.128 5.244.353 7.718-.25a2.395 2.395 0 0 0 1.75-2.906 2.396 2.396 0 0 0-2.906-1.75c-1.258.324-2.684.217-3.968.187-1.702-.038-3.396-.13-5.094-.25-6.173-.434-12.324-1.124-18.469-1.843-8.757-1.025-17.514-2.182-26.25-3.375-4.707-.643-9.438-1.192-14.125-1.969-2.953-.49-5.898-1.059-8.844-1.594-6.423-1.165-12.832-2.368-19.25-3.562-2.021-.376-4.042-.745-6.062-1.125-.728-.137-1.46-.269-2.188-.406-.225-.043-.487-.156-.718-.157ZM653.5 838.344a2.382 2.382 0 0 0-1.312 1.281 2.412 2.412 0 0 0 1.281 3.156A350.184 350.184 0 0 1 684.719 858c3.86 2.12 7.773 4.214 11.5 6.562 6.564 4.137 12.897 8.708 19.25 13.157 6.58 4.608 12.979 9.429 19.562 14.031 2.2 1.537 4.417 3.039 6.688 4.469.812.511 1.714.898 2.562 1.343.14.074.331.209.5.313.06.037.154.071.188.094.027.019.045.065.062.093.035.059.15.225.094.188-.137-.091-.186-.422-.344-.375-.018.005.001.043 0 .063-.008.327.023.639 0 .968a13.6 13.6 0 0 1-.219 1.594c-.455 2.4-1.308 4.697-2.187 6.969-.742 1.917-1.594 3.811-2.281 5.75-1.617 4.558-2.783 9.334-3.782 14.062-.938 4.444-1.59 8.965-2.937 13.313-.552 1.783-1.188 3.673-2.156 5.281-1.657 2.753-4.393 4.762-6.938 6.625a145.667 145.667 0 0 0-4.343 3.281c-1.041.824-1.231 2.335-.407 3.375.824 1.041 2.335 1.199 3.375.375 2.833-2.243 5.935-4.201 8.594-6.656 1.367-1.262 2.477-2.69 3.688-4.094 1.065-1.235 2.171-2.439 3.187-3.719a62.28 62.28 0 0 0 5.625-8.374c3.773-6.778 5.814-14.18 8.406-21.438 1.67-4.677 3.274-9.563 3.5-14.562.126-2.766-.226-5.641-1.656-8.063-.927-1.57-2.245-2.764-3.812-3.687-1.146-.675-2.428-.964-3.594-1.563-.573-.294-1.148-.608-1.719-.906-5.731-3-11.228-6.366-16.813-9.625A815.53 815.53 0 0 0 709 865.938c-3.431-1.88-6.91-3.658-10.344-5.532-5.384-2.937-10.648-6.113-16.062-9a347.597 347.597 0 0 0-27.25-13.031 2.408 2.408 0 0 0-1.844-.031Z"/>
	<path d="M530.031 193.469a281.15 281.15 0 0 0-14.843.687c-18.707 1.355-37.268 4.471-55.313 9.625-24.479 6.993-47.595 17.893-69.406 30.938-21.975 13.142-42.672 28.464-60.407 47-20.566 21.496-36.649 46.438-49.562 73.156-8.844 18.299-16.083 37.324-21.938 56.781-11.557 38.411-17.901 78.32-20.468 118.313-3.073 47.856-.804 96.07 6.187 143.5 5.946 40.336 15.295 80.283 28.969 118.719 2.076 5.834 4.335 11.59 6.625 17.343a397.54 397.54 0 0 0-40.781 24.657c-11.23 7.744-22.037 16.119-32.094 25.343-7.473 6.855-14.466 14.17-21.125 21.813.44.795 6.822-1.892 14.25-6 7.428-4.108 13.096-8.081 12.656-8.875 14.065-16.141 29.963-30.758 48.031-42.188-.081.049.299-.175.219-.125.435-.259.849-.518 1.281-.781-.034.02.027-.023.094-.063.04-.024.085-.038.125-.062 6.137-3.519 12.465-6.648 18.907-9.562.051.125.104.249.156.374 1.92 4.691 3.696 9.566 6.562 13.782 3.292 4.841 7.611 8.884 12.282 12.375 10.914 8.156 23.744 13.636 36.562 18.062 20.783 7.177 42.481 11.644 64.188 14.938 18.927 2.872 37.989 4.755 57.093 5.937a778.15 778.15 0 0 0 72.063 1.094c19.474-.601 38.925-1.919 58.281-4.156 17.231-1.992 34.425-4.712 51.344-8.563 14.947-3.402 29.746-7.696 43.875-13.687 11.369-4.822 22.281-10.735 32.687-17.375 6.889-4.397 13.737-9.105 19.594-14.844 3.175-3.111 6.209-6.65 8.094-10.719.696-1.504 1.223-3.076 1.469-4.718.192-1.282.152-2.517 0-3.688 16.703-34.25 27.769-71.066 35.093-108.406 9.735-49.63 13.169-100.555 10.969-151.063a641.8 641.8 0 0 0-2.906-39.312 609.913 609.913 0 0 0-1.532-13c-.32-2.522-.708-5.038-1-7.563-.38-3.302-.657-6.634-1.031-9.937a530.551 530.551 0 0 0-2.25-17.5c-3.236-22.057-7.747-43.942-13.781-65.407-3.939-14.013-8.46-27.846-14-41.312-5.071-12.326-10.706-24.643-17.25-36.25-3.515-6.235-7.573-12.22-11.656-18.094-9.105-13.098-19.285-25.429-30.625-36.656-18.776-18.588-40.618-34.05-64.719-44.938-31.821-14.374-66.332-20.268-100.969-19.593Zm-34.5 20.562c29.242-.373 58.492 4.155 85.813 14.875 20.824 8.171 40.196 19.875 57.344 34.219 17.341 14.506 32.406 31.687 45.312 50.219a297.354 297.354 0 0 1 8.531 12.968c2.071 3.332 4.031 6.74 6.063 10.094 2.049 3.384 4.095 6.754 6.062 10.188 4.487 7.83 8.651 15.837 12.563 23.968 6.66 13.846 12.719 28.009 18 42.438 6.139 16.778 11.282 33.892 15.625 51.219 1.984 7.915 3.761 15.882 5.406 23.875.789 3.83 1.63 7.669 2.25 11.531.978 6.091 1.644 12.275 2.312 18.406a630.726 630.726 0 0 1 2.813 34.875 661.605 661.605 0 0 1-4.219 117.532c-3.007 23.972-7.463 47.829-13.531 71.218-3.977 15.328-8.739 30.445-14.313 45.25-.697-.373-1.42-.856-2.093-1.187-1.283-.632-2.187-1.019-3.5-1.594a99.094 99.094 0 0 0-5.75-2.313c-2.437-.887-4.925-1.685-7.407-2.437-17.754-5.382-36.252-8.283-54.624-10.594-24.384-3.066-48.921-4.759-73.469-5.781-51.496-2.144-103.166-2.866-154.469 2.906-35.6 4.006-71.02 11.139-104.75 23.375-5.639 2.046-11.155 4.391-16.688 6.719-2.507-6.181-4.93-12.41-7.187-18.688-11.842-32.943-20.399-66.983-26.5-101.437-5.159-29.132-8.407-58.638-9.813-88.187-1.755-36.904-.593-73.991 4.032-110.657 5.536-43.893 16.085-87.503 34.125-128 13.708-30.773 32.283-59.78 55.969-83.843 6.095-6.193 12.513-12.055 19.312-17.469 4.171-3.321 8.46-6.603 13.062-9.313 4.743-2.792 9.836-5.071 14.907-7.187 7.829-3.268 15.889-6.014 24.062-8.281 17.041-4.729 34.579-7.412 52.219-8.469 4.171-.25 8.354-.384 12.531-.438Zm-2.031 564.25c18.989.019 37.966.523 56.938 1.313 8.999.374 18.008.753 27 1.281 21.928 1.287 43.859 3.215 65.593 6.437 16.068 2.383 32.266 5.312 47.657 10.626 1.985.685 3.961 1.424 5.906 2.218a84.063 84.063 0 0 1 5.344 2.375 58.64 58.64 0 0 1 4.656 2.563c5.133 3.134 10.263 7.663 11.218 13.594-1.125 2.303-2.133 4.658-3.312 6.937.159.276 1.207-.015 2.562-.5-.279.809-.456 1.644-.843 2.406-2.003 3.945-5.132 7.118-8.469 9.969-.5.23-.989.481-1.531.719a142.66 142.66 0 0 1-6.094 2.5c-6.413 2.457-12.981 4.53-19.594 6.375-20.016 5.582-40.56 9.04-61.156 11.625-32.491 4.078-65.398 5.401-98.125 4.906-35.056-.53-70.23-3.152-104.781-9.25-18.992-3.352-37.939-7.7-56.063-14.375-11.343-4.178-22.589-9.265-32.312-16.531-4.635-3.464-8.953-7.509-12.219-12.313-1.901-2.796-3.268-5.871-4.563-9 18.038-5.953 36.539-10.521 55.219-13.937 41.84-7.652 84.493-9.98 126.969-9.938Z"/>
	<path d="M337.062 121.938c1.423 1.785 2.682 3.7 3.907 5.624.26.409.602.77.781 1.219.151.379-.624.629-.719.875-.199.517.245 1.281.438 1.625 1.386 2.481 3.121 4.828 4.656 7.219 2.395 3.731 4.761 7.446 7.187 11.156 4.827 7.379 9.494 14.864 14.407 22.188 7.877 11.744 15.928 23.373 22.469 35.937-.63.622 3.561 5.894 9.374 11.781 5.814 5.888 11.027 10.154 11.657 9.532-3.623-6.96-7.613-13.706-11.844-20.313-6.944-10.845-14.471-21.287-21.281-32.219-2.258-3.624-3.853-7.586-5.469-11.531-.627-1.531-1.143-3.186-1.969-4.625-.826-1.438-1.965-2.937-2.937-4.25-1.955-2.64-4.075-5.19-5.969-7.875-1.16-1.645-2.157-3.422-3.281-5.093-2.417-3.595-5.01-7.066-7.688-10.469.319-.405-2.495-3.146-6.281-6.125-3.786-2.98-7.119-5.062-7.438-4.656Zm398.188-.032c-2.243.56-7.048 2.703-12.438 5.594-7.186 3.854-12.693 7.606-12.281 8.375-3.194 3.12-6.318 6.276-9.562 9.344-11.541 10.915-23.731 21.148-35.5 31.812-5.572 5.049-10.932 10.284-16.344 15.5-1.055 1.017-2.167 2.011-3.219 3.031-4.585 4.449-8.991 9.072-13.406 13.688-2.346 2.452-4.815 4.8-7.062 7.344-.54.61-1.044 1.282-1.25 2.094-.173.677.078 1.499.031 2.187-.011.156-.007.339-.094.469-.416.621-1.012 1.086-1.531 1.625-.513.532-1.041 1.071-1.563 1.593a77.24 77.24 0 0 1-7.593 6.688c.301.637 5.356-1.121 11.312-3.938 5.956-2.816 10.551-5.612 10.25-6.25 3.24-2.491 6.387-5.084 9.375-7.874a124.52 124.52 0 0 0 4.656-4.594c.583-.605 1.102-1.274 1.719-1.844 1.008-.932 2.103-1.744 3.156-2.625 2.118-1.773 4.256-3.563 6.313-5.406 1.17-1.049 2.395-2.077 3.375-3.313 1.35-1.702 2.416-3.678 3.594-5.5a155.225 155.225 0 0 1 6.281-9.031c.907-1.207 1.852-2.416 2.906-3.5 2.667-2.741 5.46-5.354 8.25-7.969 6.965-6.528 14.163-12.832 21.313-19.156 6.975-6.17 13.981-12.289 20.75-18.688 3.342-3.159 6.584-6.442 9.874-9.656-.103-.192-.564-.186-1.312 0ZM182.375 340.719c-.41.223.32 2.329 1.625 4.719 1.305 2.389 2.684 4.161 3.094 3.937 1.681.814 3.371 1.644 5.031 2.5.747.385 1.509.706 2.219 1.156 1.774 1.128 3.171 2.77 4.968 3.875 1.946 1.197 4.15 1.933 6.219 2.875a705.788 705.788 0 0 0 7.344 3.281c1.811.8 3.603 1.63 5.437 2.376.963.391 1.668.587 2.626 1 3.987 1.72 7.933 3.418 12.062 4.781 5.429 1.791 11.002 3.123 16.531 4.562.308.08.602.195.907.281 1.272.947 2.543 1.892 3.812 2.844-.303.977 4.082 3.199 9.781 4.969 5.699 1.77 10.541 2.414 10.844 1.437-6.063-4.55-12.093-9.176-18.594-13.093a102.263 102.263 0 0 0-22.312-10.031c-4.772-1.485-9.639-2.664-14.469-3.938a109.967 109.967 0 0 1-4.469-1.281c-.576-.179-.942-.275-1.5-.469-.071-.025-.147-.068-.219-.094-.099-.043-.126-.062-.187-.094-.008-.004-.023.005-.031 0-.506-.258-.997-.517-1.5-.781-.52-.272-1.054-.52-1.563-.812a.683.683 0 0 1-.219-.188c-.025-.036.038-.131 0-.156-.936-.622-1.98-1.098-2.937-1.687-.342-.212-.602-.497-.937-.719-.908-.602-1.857-1.143-2.782-1.719-.686-.428-1.438-.96-2.187-1.281-1.999-.859-4.196-1.112-6.188-2-1.763-.786-3.466-1.812-5.187-2.688a409.36 409.36 0 0 0-7.219-3.562Zm51.469 268.687c-2.089-.001-6.8.804-12.156 2.156a92.517 92.517 0 0 0-7.626 2.282c-1.074.152-2.143.333-3.218.468-5.829.733-11.66 1.351-17.438 2.438-8.34 1.569-16.549 3.799-24.656 6.281a470.798 470.798 0 0 0-9.594 3.063c-.75.248-1.877.543-2.625.812-1.243.448-2.423.89-3.593 1.5-.757.394-1.398 1.067-2.157 1.438-.685.335-1.411.543-2.125.812-1.573.593-3.166 1.154-4.75 1.719-.036.207 1.53.657 3.469 1 1.939.343 3.526.458 3.563.25 2.65-.945 5.302-1.887 7.937-2.875 1.858-.697 3.668-1.444 5.594-1.938a79.983 79.983 0 0 1 3.062-.718c.355-.077.723-.093 1.063-.219.354-.131.714-.29 1.062-.437.336-.143 1.351-.335 1-.438-.417-.122-.833.253-1.25.375-.405.119-.989.698-1.218.344-.225-.347.771-.288 1.156-.438.385-.149 1.563-.507 1.156-.437-.732.126-1.41.393-2.125.594-.552.155-1.083.471-1.656.468-.474-.002.894-.318 1.343-.468.448-.15.915-.243 1.344-.438.165-.075-.384.062-.562.094-.212.037-.411.1-.625.125-.081.009.139-.077.219-.094.124-.027.25-.068.374-.094.366-.077.758-.15 1.126-.219a88.894 88.894 0 0 1 3-.5c5.202-.788 10.418-1.275 15.624-2.031 9.31-1.351 18.432-3.712 27.344-6.719 6.534-2.204 12.927-4.722 19.063-7.874-.048-.192-.429-.281-1.125-.282Zm558.312 12.282c-6.764.083-12.258.713-12.25 1.437 1.711.352 3.419.718 5.125 1.094.421.092.861.186 1.281.281.432.097.888.08 1.282.281.098.051-.071.243-.156.313-.163.134-.388.164-.563.281-.119.08-.399.167-.313.281.165.219.516.248.782.313 1.872.452 3.822.635 5.718.969 4.429.779 8.938 1.484 13.313 2.531 5.667 1.356 11.255 2.982 16.906 4.406 7.89 1.988 15.824 3.719 23.781 5.406.006.739 5.628 1.305 12.532 1.25 6.904-.054 12.474-.699 12.468-1.437-3.61-.766-7.245-1.459-10.843-2.282-5.831-1.332-11.619-2.87-17.407-4.374-3.243-.844-6.496-1.61-9.718-2.532-2.141-.612-4.212-1.61-6.25-2.5-.847-.369-1.756-.906-2.656-1.125-1.689-.41-3.43-.522-5.157-.719-2.112-.24-4.243-.391-6.343-.718-1.041-.162-2.035-.493-3.063-.719-2.065-.454-4.148-.855-6.219-1.281-.009-.724-5.485-1.24-12.25-1.156Zm76.156-316.126a7.187 7.187 0 0 0-1.218.063c-.63.086-1.389.271-1.969.469-.861.293-1.703.592-2.531.968-2.142.974-4.27 1.982-6.344 3.094a192.148 192.148 0 0 0-7.719 4.406c-1.451.712-2.9 1.428-4.343 2.157-.019.009.035.013.062 0-.106.05-.199.074-.312.125a105.753 105.753 0 0 1-2.657 1.125c-1.833.744-3.69 1.463-5.531 2.187-5.486 2.159-10.958 4.294-16.438 6.469-9.96 3.953-19.825 8.185-29.687 12.375-2.786 1.184-5.562 2.383-8.375 3.5-1.731.688-3.563 1.176-5.25 1.969-4.034 1.896-7.827 4.347-11.906 6.156-1.482.657-3.114 1.099-4.656 1.594-3.741 1.199-7.534 2.156-11.376 2.969-.495-.768-6.705 2.367-13.874 7-7.17 4.632-12.59 9.014-12.094 9.781 3.94-.834 7.839-1.806 11.687-3 1.553-.482 3.122-.997 4.657-1.531.779-.272 1.514-.633 2.312-.844.714-.189 1.606-.038 2.344-.125 1.38-.164 2.74-.509 4.031-1.031 1.285-.521 2.562-1.188 3.813-1.782 3.097-1.471 6.155-3.053 9.218-4.594 6.066-3.051 12.04-6.276 18.219-9.093 2.17-.99 4.396-1.918 6.594-2.844 8.185-3.449 16.452-6.659 24.719-9.906 4.616-1.813 9.269-3.57 13.812-5.563 3.235-1.419 6.354-3.054 9.531-4.594 1.875-.908 3.805-1.727 5.657-2.687 1.086-.563 2.143-1.195 3.218-1.781.349.075.667.18.625.468-.076.525-1.366 1.434-1.687 1.719-1.103.979-2.147 1.962-3.094 3.094.446.8 6.868-1.929 14.344-6.094 7.476-4.164 13.164-8.169 12.718-8.969.491-.616 1.1-1.103 1.688-1.624 1.007-.893 2.045-1.806 2.906-2.844.228-.274.448-.564.625-.875.865-1.516-.495-1.851-1.719-1.907ZM724.344 793.25c-.878-.094-1.445.038-1.625.375-.421 1.245-.748 2.489-.781 3.813-.154 6.138 6.081 10.214 10.437 13.343 1.836 1.32 3.704 2.619 5.625 3.813 4.149 2.578 8.502 4.921 12.875 7.094 2.806 1.394 5.653 2.732 8.594 3.812 2.954 1.085 6.165 1.554 9.281 1.906.562.064 1.1.06 1.656.094.75.045 1.518.25 2.25.406 2.077.442 4.005 1.203 5.969 2 1.688.686 3.393 1.395 5.063 2.125 6.353 2.782 12.511 5.95 18.624 9.219.134.293.283.574.407.875-.666 1.343 5.162 5.584 13 9.469 7.837 3.884 14.74 5.937 15.406 4.594-2.066-5.004-6.018-8.209-10.469-11.157-4.252-2.817-8.683-5.266-13.25-7.531-.787-.391-1.579-.752-2.375-1.125-.222-.104-.464-.21-.687-.313-.062-.028-.126-.065-.188-.093-3.376-1.857-6.791-3.619-10.218-5.375-8.255-4.229-16.656-8.214-25.219-11.782-3.575-1.489-7.211-2.799-10.813-4.218-2.408-.949-4.817-1.917-7.218-2.875.106-.973.227-1.947.531-2.844.722-1.349-5.064-5.882-12.938-10.094-5.905-3.158-11.304-5.25-13.937-5.531Z"/>
	<path d="M442.849 259.183c19.614-16.386 69.076-8.091 69.076-8.091s-23.708 5.099-43.322 21.485c-19.614 16.385-25.15 29.948-25.15 29.948s-20.218-26.956-.604-43.342Z" fill="url(#b)"/>
	<path d="M318.533 641.548c0-104.657 78.754-151.635 78.754-151.635 118.207-83.131 232.635-161.461 105.522-234.308 213.727 4.51 233.542 275.768 205.317 389.808-25.179 101.729-85.887 185.633-193.942 185.633s-195.651-84.841-195.651-189.498Z" fill="url(#c)"/>
	<path d="M478.812 448.25c-5.335.035-10.681.256-16 .719a180.78 180.78 0 0 0-27.593 4.562c-2.942.724-5.894 1.484-8.781 2.407-4.034 1.289-7.983 3.111-11.813 4.906-2.971 1.392-5.929 2.845-8.781 4.468-9.169 5.22-17.762 11.672-25.625 18.688-3.461 3.088-6.701 6.372-9.969 9.656-2.019 2.03-4.281 3.827-6.375 5.782-3.504 3.271-6.862 6.71-10.094 10.25-12.655 13.861-23.144 29.69-30.906 46.781-7.542 16.606.018-.001-15.906 73.843-.109.209-.078.46.062.782 2.886 31.423.993 21.71 3.031 32.531 4.195 22.269 12.674 43.632 24.782 62.781 9.779 15.466 21.905 29.413 35.656 41.469 12.237 10.728 25.732 19.954 39.844 28.031 21.202 12.137 43.993 21.939 67.906 27.219 24.55 5.421 50.176 6.023 74.906 1.406a181.077 181.077 0 0 0 55.313-20.062 180.775 180.775 0 0 0 44-34.688c14.415-15.554 26.044-33.604 34.187-53.187 9.006-21.657 13.594-45.083 13.594-68.532 0-30.938-8.063-61.613-23.312-88.531-9.868-17.416-22.682-33.146-37.407-46.687-11.648-10.712-24.597-19.965-38.156-28.094a294.83 294.83 0 0 0-33.844-17.438c-13.267-5.778-26.986-10.522-41.093-13.781a205.837 205.837 0 0 0-47.626-5.281Zm50.438 24.281c8.698.129 17.382.946 25.938 2.5 6.952 1.264 13.844 2.989 20.531 5.281 4.333 1.486 8.614 3.145 12.656 5.313 3.775 2.025 7.344 4.484 10.781 7.031 4.523 3.352 8.815 6.981 12.938 10.813 17.97 16.705 31.972 37.704 41.187 60.406 8.543 21.046 12.875 43.73 12.875 66.437 0 18.906-3.005 37.798-8.937 55.75-10.531 31.872-30.265 60.422-56.188 81.719-36.89 30.308-84.861 44.707-132.343 39.531-9.86-1.074-19.626-3.013-29.126-5.874-6.515-1.963-12.984-4.292-19.031-7.438-5.232-2.722-10.113-6.122-14.75-9.75-7.247-5.671-13.942-12.035-20.093-18.875-13.115-14.581-23.66-31.429-31.188-49.531-6.181-14.865-.007-.032-13.438-67.75.002-.015-.001-.017 0-.032 4.246-38.732 1.41-26.001 4.25-38.75 5.979-26.836 18.335-52.176 35.719-73.468a179.893 179.893 0 0 1 15.531-16.719c2.066-1.961 4.139-3.945 6.344-5.75 1.534-1.256 3.252-2.319 4.906-3.406a196.34 196.34 0 0 1 7.626-4.75c10.481-6.229 21.48-11.331 32.843-15.719 4.222-1.63 8.444-3.225 12.75-4.625 3.359-1.092 6.791-1.966 10.157-3.031 3.189-1.01 6.366-2.08 9.593-2.969a180.924 180.924 0 0 1 22.469-4.687 166.586 166.586 0 0 1 26-1.657Z" fill="red"/>
	<path d="M482.75 247.125c-2.804-.04-5.608.007-8.406.187-4.698.303-2 .465-36.5 10.532-1.348.106-2.199.346-2.25.687-.001.005-.031-.004-.032 0-4.987 5.515-3.589 3.433-4.968 5.531-6.005 9.132-3.848 20.394.531 29.688a57.835 57.835 0 0 0 3.563 6.438 46.02 46.02 0 0 0 1.031 1.531c.186.267.386.615.687.781.458.252 1.024.491 1.5.562 2.19.33 4.381.692 6.594.782 1.761.071 3.526-.148 5.281-.313.274-.025.526-.147.781-.25.366-.147.527-.792.657-1.062.189-.393.39-.803.593-1.188a56.687 56.687 0 0 1 2.5-4.25c3.684-5.698 8.145-10.897 12.938-15.687 4.223-4.221 8.725-8.184 13.562-11.688 6.375-4.616 13.308-8.452 20.532-11.562 4.021-1.732 8.127-3.14 12.344-4.313a91.333 91.333 0 0 1 3.968-1c.476-.109 1.919-.315 2.375-.687.572-.466-.527-.894-.812-1a10.718 10.718 0 0 0-.969-.313 25.311 25.311 0 0 0-1.219-.281c-2.195-.456-4.439-.731-6.656-1.031-6.382-.863-12.788-1.433-19.219-1.781a210.27 210.27 0 0 0-8.406-.313Zm-1.656 3.719c2.675-.009 5.34.049 8 .031 3.713-.025 7.424.143 11.125.437-.502.163-1.001.329-1.5.5a156.002 156.002 0 0 0-12.469 4.907c-6.985 3.091-13.716 6.829-19.906 11.312-4.528 3.279-8.753 6.971-12.75 10.875-3.438 3.359-6.6 7.022-9.563 10.813-.154-.433-.358-.845-.5-1.281-2.485-7.674.001-.039 6.594-28.594 18.001-7.788 11.549-6.448 18-7.782 1.64-.339 3.302-.694 4.969-.874 2.649-.287 5.324-.335 8-.344Z"/>
	<path d="M489.625 247.406c-.312.026-.72.053-.937.313-.291.347-.086.864.124 1.187.232.355.487.696.782 1a19.486 19.486 0 0 0 1.687 1.563 46.807 46.807 0 0 0 2.875 2.156c3.962 2.754 8.254 5 12.282 7.656 11.925 7.866 23.091 17.955 29.843 30.719 2.073 3.917 3.683 8.095 4.719 12.406 5.561 23.153-7.224 45.291-21.5 62.5a225.374 225.374 0 0 1-6.312 7.25c-3.806 4.208-7.796 8.277-11.876 12.219-2.584 2.497-5.256 4.882-7.843 7.375-3.548 3.418-7.045 6.899-10.657 10.25-4.244 3.938-8.593 7.732-12.906 11.594-14.85 13.297-30.137 26.092-45.687 38.562-4.199 3.368-8.342 6.856-12.594 10.156-2.931 2.276-6.063 4.297-9.094 6.438a7615.854 7615.854 0 0 1-17.469 12.312c-.72.507-1.609 1.016-2.374 1.532-1.933 1.302-3.802 2.683-5.657 4.094-9.697 7.374-18.578 15.874-26.531 25.093-19.518 22.627.018-.013-44.375 121.281-.003.006.003.026 0 .032 3.361 35.229 1.093 23.592 3.344 35.218 4.967 25.656 15.463 50.109 30.406 71.532 17.594 25.224 41.071 45.628 67.375 61.375 22.047 13.198 45.991 23.581 71.062 29.406 43.515 10.111 90.984 6.686 130.782-14.469 36.258-19.274 63.268-51.35 82.187-87.281 9.307-17.675 16.731-36.32 22.688-55.375 3.96-12.669 7.357-25.52 9.843-38.562 5.21-27.327 7.056-55.338 6.813-83.126a496.983 496.983 0 0 0-2.406-44.687 467.83 467.83 0 0 0-4.344-32.313c-10.592-62.235-34.621-124.873-82.031-168.374-13.608-12.486-28.932-23.005-45.125-31.844-14.541-7.938-29.832-14.545-45.688-19.375a226.27 226.27 0 0 0-36.469-7.875 246.718 246.718 0 0 0-19.968-1.782c-.568-.028-1.151-.069-1.719-.093-.981-.042-2.235-.145-3.25-.063Zm32.625 16.719c2.698.106 5.406.146 8.094.344 10.547.776 21.053 2.302 31.344 4.75 13.355 3.177 26.541 7.804 38.218 15.125 11.009 6.901 20.95 15.526 29.875 24.937 13.652 14.396 25.039 30.884 34.407 48.344 13.437 25.047 22.864 52.11 29.437 79.719 8.061 33.861 11.852 68.745 12.156 103.531.243 27.718-1.584 55.68-6.781 82.937-2.279 11.956-5.345 23.731-8.875 35.376-5.496 18.13-12.323 35.882-20.781 52.843-17.183 34.458-41.697 66.029-74.656 86.625-17.883 11.175-37.85 18.745-58.594 22.469-25.075 4.501-51.245 3.805-76.094-1.75-12.782-2.858-25.419-6.98-37.125-12.906-15.408-7.801-29.131-19.008-41-31.469-22.728-23.862-.016-.013-50.937-126.969.002-.014-.003-.017 0-.031 8.002-55.252 2.578-37.328 8.031-55.281 9.263-30.503 26.848-58.253 50.187-79.938 4.179-3.882 8.53-7.577 13.094-11a119.108 119.108 0 0 1 4.875-3.469c.786-.529 1.599-1.02 2.375-1.562 4.309-3.012 8.606-6.038 12.906-9.062 4.269-3.003 8.475-6.084 12.782-9.032 2.194-1.502 4.502-2.859 6.75-4.281 4.149-2.626 8.308-5.248 12.437-7.906 13.998-9.014 27.89-18.207 41.469-27.844 7.638-5.421 15.073-11.124 22.344-17.031 3.424-2.782 6.87-5.555 10.156-8.5 3.096-2.775 5.98-5.799 8.875-8.782 5.035-5.187 9.953-10.542 14.437-16.218 14.142-17.9 26.608-40.34 21.969-63.938-.916-4.658-2.46-9.185-4.5-13.468-3.036-6.376-7.154-12.216-11.781-17.532-9.261-10.639-20.547-19.389-32.219-27.218-.94-.631-1.927-1.194-2.875-1.813Z"/>
	<path d="M304.727 604.112c5.113-150.054 72.588-240.188 135.475-274.275-130.856 318.355 282.56 259.552 221.423 419.407 0 0-49.394 95.39-173.953 80.446-121.491-14.577-186.033-134.97-182.945-225.578Z" fill="url(#d)"/>
	<path d="M431.537 330.852c-84.025 64.88-124.769 142.128-135.498 249.419-2.528 25.288-2.837 62.007 3.268 88.091 25.687 109.751 128.297 198.836 245.581 170.765 14.742-3.528 29.781-7.643 42.763-15.467 22.244-13.407 43.276-29.262 61.747-47.52 11.74-11.604 20.259-26.298 27.792-40.985 17.147-33.432-6.203-74.83-34.533-93.055-43.607-28.052-90.338-50.978-134.412-78.29-16.733-10.369-42.661-32.151-53.641-49.835-27.612-44.475-30.613-85.83-19.066-136.274 4.481-19.572 18.512-62.369 18.512-62.369s-16.493 10.872-22.513 15.52Zm-5.648 14.149s-14.175 42.643-17.853 63.884c-8.993 51.932-4.499 100.096 25.641 144.255 14.574 21.353 35.547 38.541 57.777 51.738 41.353 24.551 85.176 44.777 126.512 69.357 45.545 27.082 47.731 83.868 6.287 116.297-9.858 7.714-21.134 13.714-32.755 18.363-102.638 41.055-216.519-23.163-254.887-121.674-42.129-108.169-9.526-245.501 70.597-326.642 5.425-5.493 18.681-15.578 18.681-15.578Z"/>
</svg>
